<svg xmlns="http://www.w3.org/2000/svg" style="display: none;"><symbol id="icon-dashboard" viewBox="0 0 48 48"><title>dashboard</title><g class="nc-icon-wrapper"><path fill="#444444" d="M24,47C11.31787,47,1,36.68213,1,24S11.31787,1,24,1s23,10.31787,23,23S36.68213,47,24,47z"/> <path fill="#FFFFFF" d="M42.31842,32C43.39374,29.54755,44,26.84473,44,24c0-11.02795-8.97205-20-20-20C12.97211,4,4,12.97205,4,24 c0,2.84473,0.60626,5.54755,1.68158,8H42.31842z"/> <path fill="#444444" d="M26.12278,26.12278c-1.16963,1.16963-3.07301,1.16963-4.24264,0C20.71051,24.95315,18,18,18,18 s6.95315,2.71051,8.12278,3.88014C27.29241,23.04977,27.29241,24.95315,26.12278,26.12278z"/> <path fill="#E86C60" d="M24,9c-4.1355,0-7.8855,1.68225-10.60162,4.39838l2.82709,2.82709C18.21729,14.23364,20.96729,13,24,13 c6.06543,0,11,4.93457,11,11h4C39,15.729,32.271,9,24,9z"/> <path fill="#EFD358" d="M9,24h4c0-3.03271,1.23364-5.78271,3.22546-7.77454l-2.82709-2.82709C10.68225,16.1145,9,19.8645,9,24z"/></g></symbol><symbol id="icon-metrics" viewBox="0 0 48 48"><title>metrics</title><g class="nc-icon-wrapper"><path fill="#5B5B5B" d="M7,2C5.896,2,5,2.896,5,4v28.082C2.613,33.468,1,36.047,1,39c0,4.411,3.589,8,8,8 c2.953,0,5.532-1.613,6.918-4H44c1.104,0,2-0.896,2-2C46,19.495,28.505,2,7,2z"/> <path fill="#E86C60" d="M9,43c-1.068,0-2.073-0.416-2.828-1.171c-1.56-1.56-1.56-4.098,0-5.657 c1.082-1.082,9.109-6.434,13.799-9.527c0.396-0.261,0.922-0.208,1.258,0.127s0.39,0.861,0.128,1.258 c-3.096,4.691-8.45,12.722-9.528,13.799C11.073,42.584,10.068,43,9,43z"/> <path fill="#444444" d="M37.188,35c-0.455,0-0.866-0.312-0.974-0.775c-2.561-11.079-11.368-19.89-22.439-22.447 c-0.538-0.124-0.874-0.661-0.75-1.199c0.125-0.538,0.662-0.874,1.199-0.749c11.812,2.727,21.208,12.126,23.939,23.945 c0.124,0.538-0.211,1.075-0.749,1.199C37.339,34.992,37.263,35,37.188,35z"/> <path fill="#72C472" d="M28.911,20.089c-0.256,0-0.512-0.098-0.707-0.293c-3.982-3.985-8.972-6.758-14.429-8.018 c-0.538-0.125-0.874-0.662-0.75-1.2c0.125-0.538,0.662-0.87,1.199-0.75c5.823,1.345,11.146,4.302,15.394,8.553 c0.391,0.391,0.391,1.024,0,1.415C29.423,19.991,29.167,20.089,28.911,20.089z"/></g></symbol><symbol id="icon-power-level" viewBox="0 0 48 48"><title>power level</title><g class="nc-icon-wrapper"><path fill="#335262" d="M28.96338,40.39355c-0.27539-2.25098-6.34033-17.96973-7.03076-19.75439 c-0.16943-0.4375-0.61523-0.6958-1.08301-0.62793c-0.46338,0.07031-0.81543,0.45361-0.84717,0.92139 c-0.12744,1.88184-1.23682,18.45068-0.96582,20.67334c0.30957,2.53223,2.47119,4.39453,4.96045,4.39453 c0.20117,0,0.4043-0.01221,0.60889-0.03711C27.34277,45.62891,29.29736,43.13037,28.96338,40.39355z"/> <path fill="#EFD358" d="M45.77832,13.03809C40.70605,6.12646,32.56445,2,24,2v10c5.39307,0,10.521,2.6001,13.7168,6.95508 c0.15674,0.21387,0.39209,0.35645,0.6543,0.39648c0.26465,0.04053,0.53027-0.02539,0.74365-0.18213l6.44922-4.7334 C46.00928,14.10938,46.10498,13.4834,45.77832,13.03809z"/> <path fill="#E86C60" d="M2.21875,13.04248c-0.32666,0.44531-0.23047,1.0708,0.21484,1.39746l6.4502,4.73242 c0.17236,0.12695,0.37988,0.19385,0.59131,0.19385c0.05029,0,0.10107-0.00391,0.15186-0.01172 c0.26221-0.04004,0.49756-0.18311,0.6543-0.39697C13.47754,14.60107,18.60596,12,24,12V2 C15.43359,2,7.29102,6.12793,2.21875,13.04248z"/></g></symbol><symbol id="icon--stopwatch" viewBox="0 0 48 48"><title> stopwatch</title><g class="nc-icon-wrapper"><path fill="#335262" d="M36,15.5c-0.38379,0-0.76758-0.14648-1.06055-0.43945c-0.58594-0.58545-0.58594-1.53564,0-2.12109l4-4 c0.58594-0.58594,1.53516-0.58594,2.12109,0c0.58594,0.58545,0.58594,1.53564,0,2.12109l-4,4 C36.76758,15.35352,36.38379,15.5,36,15.5z"/> <circle fill="#FFFFFF" cx="24" cy="28" r="18"/> <path fill="#335262" d="M24,48C12.97217,48,4,39.02783,4,28S12.97217,8,24,8s20,8.97217,20,20S35.02783,48,24,48z M24,12 c-8.82227,0-16,7.17773-16,16s7.17773,16,16,16s16-7.17773,16-16S32.82227,12,24,12z"/> <path fill="#335262" d="M24,10c-2.75684,0-5-2.24316-5-5s2.24316-5,5-5s5,2.24316,5,5S26.75684,10,24,10z M24,2 c-1.6543,0-3,1.3457-3,3s1.3457,3,3,3s3-1.3457,3-3S25.6543,2,24,2z"/> <path fill="#E86C60" d="M22.58579,26.58579c0.78105-0.78105,9.8995-7.07107,9.8995-7.07107s-6.29002,9.11845-7.07107,9.89949 c-0.78105,0.78105-2.04738,0.78105-2.82843,0C21.80474,28.63317,21.80474,27.36683,22.58579,26.58579z"/> <path fill="#B3B3B3" d="M24,18c-0.55273,0-1-0.44775-1-1v-2c0-0.55225,0.44727-1,1-1s1,0.44775,1,1v2C25,17.55225,24.55273,18,24,18 z"/> <path fill="#B3B3B3" d="M34,28c0-0.55273,0.44775-1,1-1h2c0.55225,0,1,0.44727,1,1s-0.44775,1-1,1h-2C34.44775,29,34,28.55273,34,28 z"/> <path fill="#B3B3B3" d="M24,38c0.55273,0,1,0.44775,1,1v2c0,0.55225-0.44727,1-1,1s-1-0.44775-1-1v-2C23,38.44775,23.44727,38,24,38 z"/> <path fill="#B3B3B3" d="M14,28c0,0.55273-0.44775,1-1,1h-2c-0.55225,0-1-0.44727-1-1s0.44775-1,1-1h2C13.55225,27,14,27.44727,14,28 z"/> <path fill="#B3B3B3" d="M42.17157,14.8995l-7.07107-7.07107c-0.39053-0.39052-0.39053-1.02369,0-1.41421l2.12132-2.12132 c0.39053-0.39052,1.02369-0.39052,1.41422,0l7.07107,7.07107c0.39052,0.39052,0.39052,1.02369,0,1.41421l-2.12132,2.12132 C43.19526,15.29002,42.5621,15.29002,42.17157,14.8995z"/> <path fill="#335262" d="M12,15.5c-0.38379,0-0.76758-0.14648-1.06055-0.43945l-4-4c-0.58594-0.58545-0.58594-1.53564,0-2.12109 c0.58594-0.58594,1.53516-0.58594,2.12109,0l4,4c0.58594,0.58545,0.58594,1.53564,0,2.12109 C12.76758,15.35352,12.38379,15.5,12,15.5z"/> <path fill="#B3B3B3" d="M5.82843,14.8995l7.07107-7.07107c0.39052-0.39052,0.39052-1.02369,0-1.41421l-2.12132-2.12132 c-0.39052-0.39052-1.02369-0.39052-1.41421,0l-7.07107,7.07107c-0.39052,0.39052-0.39052,1.02369,0,1.41421l2.12132,2.12132 C4.80474,15.29002,5.4379,15.29002,5.82843,14.8995z"/></g></symbol></svg>